<mxfile host="Electron" modified="2024-04-21T18:52:01.580Z" agent="Mozilla/5.0 (Windows NT 10.0; Win64; x64) AppleWebKit/537.36 (KHTML, like Gecko) draw.io/21.7.5 Chrome/114.0.5735.289 Electron/25.8.1 Safari/537.36" etag="rk4ZOhvbSSqlOsM28sq9" version="21.7.5" type="device">
  <diagram name="Page-1" id="EdPPrI86BUb5t3co-C3J">
    <mxGraphModel dx="2861" dy="2480" grid="1" gridSize="10" guides="1" tooltips="1" connect="1" arrows="1" fold="1" page="1" pageScale="1" pageWidth="827" pageHeight="1169" math="0" shadow="0">
      <root>
        <mxCell id="0" />
        <mxCell id="1" parent="0" />
        <mxCell id="cVBqusEGg2LFIOtPGcBv-1" value="&lt;p style=&quot;margin:0px;margin-top:4px;text-align:center;&quot;&gt;&lt;i&gt;&amp;lt;&amp;lt;Interface&amp;gt;&amp;gt;&lt;/i&gt;&lt;br&gt;&lt;b&gt;WeatherData&lt;/b&gt;&lt;/p&gt;&lt;hr size=&quot;1&quot;&gt;&lt;p style=&quot;margin:0px;margin-left:4px;&quot;&gt;-&lt;/p&gt;&lt;hr size=&quot;1&quot;&gt;&lt;p style=&quot;margin:0px;margin-left:4px;&quot;&gt;&lt;span style=&quot;background-color: initial;&quot;&gt;+ displayData():String&lt;/span&gt;&lt;br&gt;&lt;/p&gt;" style="verticalAlign=top;align=left;overflow=fill;fontSize=12;fontFamily=Helvetica;html=1;whiteSpace=wrap;" parent="1" vertex="1">
          <mxGeometry x="160" y="200" width="160" height="90" as="geometry" />
        </mxCell>
        <mxCell id="cVBqusEGg2LFIOtPGcBv-2" value="HomeWeatherStation&lt;span id=&quot;docs-internal-guid-bb636dd0-7fff-c01c-6743-5649157d5aa7&quot; style=&quot;font-weight:normal;&quot;&gt;&lt;/span&gt;&lt;span id=&quot;docs-internal-guid-23a3fcaf-7fff-a1ed-97a8-55356af7a262&quot; style=&quot;font-weight:normal;&quot;&gt;&lt;/span&gt;&lt;span id=&quot;docs-internal-guid-23a3fcaf-7fff-a1ed-97a8-55356af7a262&quot; style=&quot;font-weight:normal;&quot;&gt;&lt;/span&gt;&lt;span id=&quot;docs-internal-guid-23a3fcaf-7fff-a1ed-97a8-55356af7a262&quot; style=&quot;font-weight:normal;&quot;&gt;&lt;/span&gt;" style="swimlane;fontStyle=1;align=center;verticalAlign=top;childLayout=stackLayout;horizontal=1;startSize=26;horizontalStack=0;resizeParent=1;resizeParentMax=0;resizeLast=0;collapsible=1;marginBottom=0;whiteSpace=wrap;html=1;" parent="1" vertex="1">
          <mxGeometry x="10" y="360" width="260" height="150" as="geometry" />
        </mxCell>
        <mxCell id="cVBqusEGg2LFIOtPGcBv-3" value="- temperatura:Real&lt;br&gt;- presion:Real&lt;br&gt;- radiacionSolar:Real&lt;br&gt;- temperaturas:Real[*]" style="text;strokeColor=none;fillColor=none;align=left;verticalAlign=top;spacingLeft=4;spacingRight=4;overflow=hidden;rotatable=0;points=[[0,0.5],[1,0.5]];portConstraint=eastwest;whiteSpace=wrap;html=1;" parent="cVBqusEGg2LFIOtPGcBv-2" vertex="1">
          <mxGeometry y="26" width="260" height="64" as="geometry" />
        </mxCell>
        <mxCell id="cVBqusEGg2LFIOtPGcBv-4" value="" style="line;strokeWidth=1;fillColor=none;align=left;verticalAlign=middle;spacingTop=-1;spacingLeft=3;spacingRight=3;rotatable=0;labelPosition=right;points=[];portConstraint=eastwest;strokeColor=inherit;" parent="cVBqusEGg2LFIOtPGcBv-2" vertex="1">
          <mxGeometry y="90" width="260" height="8" as="geometry" />
        </mxCell>
        <mxCell id="cVBqusEGg2LFIOtPGcBv-5" value="+ &amp;lt;&amp;lt;create&amp;gt;&amp;gt; (temperatura:Real, presion:Real, radiacionSolar:Real, temperaturas:Real[*])&lt;br&gt;+ displayData():String" style="text;strokeColor=none;fillColor=none;align=left;verticalAlign=top;spacingLeft=4;spacingRight=4;overflow=hidden;rotatable=0;points=[[0,0.5],[1,0.5]];portConstraint=eastwest;whiteSpace=wrap;html=1;" parent="cVBqusEGg2LFIOtPGcBv-2" vertex="1">
          <mxGeometry y="98" width="260" height="52" as="geometry" />
        </mxCell>
        <mxCell id="cVBqusEGg2LFIOtPGcBv-6" value="&lt;p style=&quot;margin:0px;margin-top:4px;text-align:center;&quot;&gt;&lt;i&gt;&amp;lt;&amp;lt;Abstract&amp;gt;&amp;gt;&lt;/i&gt;&lt;br&gt;&lt;b&gt;Component&lt;/b&gt;&lt;/p&gt;&lt;hr size=&quot;1&quot;&gt;&lt;p style=&quot;margin:0px;margin-left:4px;&quot;&gt;-&lt;/p&gt;&lt;hr size=&quot;1&quot;&gt;&lt;p style=&quot;margin:0px;margin-left:4px;&quot;&gt;&lt;span style=&quot;background-color: initial;&quot;&gt;+ &amp;lt;&amp;lt;create&amp;gt;&amp;gt; (component:WeatherData)&lt;/span&gt;&lt;/p&gt;&lt;p style=&quot;margin:0px;margin-left:4px;&quot;&gt;&lt;span style=&quot;background-color: initial;&quot;&gt;+ displayData():String&lt;/span&gt;&lt;br&gt;&lt;/p&gt;" style="verticalAlign=top;align=left;overflow=fill;fontSize=12;fontFamily=Helvetica;html=1;whiteSpace=wrap;" parent="1" vertex="1">
          <mxGeometry x="320" y="360" width="230" height="110" as="geometry" />
        </mxCell>
        <mxCell id="cVBqusEGg2LFIOtPGcBv-7" value="Celsius" style="swimlane;fontStyle=1;align=center;verticalAlign=top;childLayout=stackLayout;horizontal=1;startSize=26;horizontalStack=0;resizeParent=1;resizeParentMax=0;resizeLast=0;collapsible=1;marginBottom=0;whiteSpace=wrap;html=1;" parent="1" vertex="1">
          <mxGeometry x="-20" y="570" width="160" height="86" as="geometry" />
        </mxCell>
        <mxCell id="cVBqusEGg2LFIOtPGcBv-8" value="-" style="text;strokeColor=none;fillColor=none;align=left;verticalAlign=top;spacingLeft=4;spacingRight=4;overflow=hidden;rotatable=0;points=[[0,0.5],[1,0.5]];portConstraint=eastwest;whiteSpace=wrap;html=1;" parent="cVBqusEGg2LFIOtPGcBv-7" vertex="1">
          <mxGeometry y="26" width="160" height="26" as="geometry" />
        </mxCell>
        <mxCell id="cVBqusEGg2LFIOtPGcBv-9" value="" style="line;strokeWidth=1;fillColor=none;align=left;verticalAlign=middle;spacingTop=-1;spacingLeft=3;spacingRight=3;rotatable=0;labelPosition=right;points=[];portConstraint=eastwest;strokeColor=inherit;" parent="cVBqusEGg2LFIOtPGcBv-7" vertex="1">
          <mxGeometry y="52" width="160" height="8" as="geometry" />
        </mxCell>
        <mxCell id="cVBqusEGg2LFIOtPGcBv-10" value="+ displayData():String" style="text;strokeColor=none;fillColor=none;align=left;verticalAlign=top;spacingLeft=4;spacingRight=4;overflow=hidden;rotatable=0;points=[[0,0.5],[1,0.5]];portConstraint=eastwest;whiteSpace=wrap;html=1;" parent="cVBqusEGg2LFIOtPGcBv-7" vertex="1">
          <mxGeometry y="60" width="160" height="26" as="geometry" />
        </mxCell>
        <mxCell id="cVBqusEGg2LFIOtPGcBv-11" value="" style="endArrow=block;dashed=1;endFill=0;endSize=12;html=1;rounded=0;exitX=0.5;exitY=0;exitDx=0;exitDy=0;entryX=0.5;entryY=1;entryDx=0;entryDy=0;edgeStyle=orthogonalEdgeStyle;" parent="1" source="cVBqusEGg2LFIOtPGcBv-2" target="cVBqusEGg2LFIOtPGcBv-1" edge="1">
          <mxGeometry width="160" relative="1" as="geometry">
            <mxPoint x="310" y="510" as="sourcePoint" />
            <mxPoint x="470" y="510" as="targetPoint" />
          </mxGeometry>
        </mxCell>
        <mxCell id="cVBqusEGg2LFIOtPGcBv-12" value="" style="endArrow=block;dashed=1;endFill=0;endSize=12;html=1;rounded=0;entryX=0.5;entryY=1;entryDx=0;entryDy=0;exitX=0.5;exitY=0;exitDx=0;exitDy=0;edgeStyle=orthogonalEdgeStyle;" parent="1" source="cVBqusEGg2LFIOtPGcBv-6" target="cVBqusEGg2LFIOtPGcBv-1" edge="1">
          <mxGeometry width="160" relative="1" as="geometry">
            <mxPoint x="310" y="510" as="sourcePoint" />
            <mxPoint x="470" y="510" as="targetPoint" />
          </mxGeometry>
        </mxCell>
        <mxCell id="cVBqusEGg2LFIOtPGcBv-13" value="Client" style="text;html=1;align=center;verticalAlign=middle;resizable=0;points=[];autosize=1;strokeColor=none;fillColor=none;" parent="1" vertex="1">
          <mxGeometry x="215" y="170" width="50" height="30" as="geometry" />
        </mxCell>
        <mxCell id="cVBqusEGg2LFIOtPGcBv-14" value="ConcreteComponent" style="text;html=1;align=center;verticalAlign=middle;resizable=0;points=[];autosize=1;strokeColor=none;fillColor=none;" parent="1" vertex="1">
          <mxGeometry x="10" y="330" width="130" height="30" as="geometry" />
        </mxCell>
        <mxCell id="cVBqusEGg2LFIOtPGcBv-15" value="component" style="text;html=1;align=center;verticalAlign=middle;resizable=0;points=[];autosize=1;strokeColor=none;fillColor=none;" parent="1" vertex="1">
          <mxGeometry x="419" y="200" width="80" height="30" as="geometry" />
        </mxCell>
        <mxCell id="cVBqusEGg2LFIOtPGcBv-16" value="Presion" style="swimlane;fontStyle=1;align=center;verticalAlign=top;childLayout=stackLayout;horizontal=1;startSize=26;horizontalStack=0;resizeParent=1;resizeParentMax=0;resizeLast=0;collapsible=1;marginBottom=0;whiteSpace=wrap;html=1;" parent="1" vertex="1">
          <mxGeometry x="170" y="570" width="160" height="86" as="geometry" />
        </mxCell>
        <mxCell id="cVBqusEGg2LFIOtPGcBv-17" value="-" style="text;strokeColor=none;fillColor=none;align=left;verticalAlign=top;spacingLeft=4;spacingRight=4;overflow=hidden;rotatable=0;points=[[0,0.5],[1,0.5]];portConstraint=eastwest;whiteSpace=wrap;html=1;" parent="cVBqusEGg2LFIOtPGcBv-16" vertex="1">
          <mxGeometry y="26" width="160" height="26" as="geometry" />
        </mxCell>
        <mxCell id="cVBqusEGg2LFIOtPGcBv-18" value="" style="line;strokeWidth=1;fillColor=none;align=left;verticalAlign=middle;spacingTop=-1;spacingLeft=3;spacingRight=3;rotatable=0;labelPosition=right;points=[];portConstraint=eastwest;strokeColor=inherit;" parent="cVBqusEGg2LFIOtPGcBv-16" vertex="1">
          <mxGeometry y="52" width="160" height="8" as="geometry" />
        </mxCell>
        <mxCell id="cVBqusEGg2LFIOtPGcBv-19" value="+ displayData():String" style="text;strokeColor=none;fillColor=none;align=left;verticalAlign=top;spacingLeft=4;spacingRight=4;overflow=hidden;rotatable=0;points=[[0,0.5],[1,0.5]];portConstraint=eastwest;whiteSpace=wrap;html=1;" parent="cVBqusEGg2LFIOtPGcBv-16" vertex="1">
          <mxGeometry y="60" width="160" height="26" as="geometry" />
        </mxCell>
        <mxCell id="cVBqusEGg2LFIOtPGcBv-20" value="RadiacionSolar" style="swimlane;fontStyle=1;align=center;verticalAlign=top;childLayout=stackLayout;horizontal=1;startSize=26;horizontalStack=0;resizeParent=1;resizeParentMax=0;resizeLast=0;collapsible=1;marginBottom=0;whiteSpace=wrap;html=1;" parent="1" vertex="1">
          <mxGeometry x="355" y="570" width="160" height="86" as="geometry" />
        </mxCell>
        <mxCell id="cVBqusEGg2LFIOtPGcBv-21" value="-" style="text;strokeColor=none;fillColor=none;align=left;verticalAlign=top;spacingLeft=4;spacingRight=4;overflow=hidden;rotatable=0;points=[[0,0.5],[1,0.5]];portConstraint=eastwest;whiteSpace=wrap;html=1;" parent="cVBqusEGg2LFIOtPGcBv-20" vertex="1">
          <mxGeometry y="26" width="160" height="26" as="geometry" />
        </mxCell>
        <mxCell id="cVBqusEGg2LFIOtPGcBv-22" value="" style="line;strokeWidth=1;fillColor=none;align=left;verticalAlign=middle;spacingTop=-1;spacingLeft=3;spacingRight=3;rotatable=0;labelPosition=right;points=[];portConstraint=eastwest;strokeColor=inherit;" parent="cVBqusEGg2LFIOtPGcBv-20" vertex="1">
          <mxGeometry y="52" width="160" height="8" as="geometry" />
        </mxCell>
        <mxCell id="cVBqusEGg2LFIOtPGcBv-23" value="+ displayData():String" style="text;strokeColor=none;fillColor=none;align=left;verticalAlign=top;spacingLeft=4;spacingRight=4;overflow=hidden;rotatable=0;points=[[0,0.5],[1,0.5]];portConstraint=eastwest;whiteSpace=wrap;html=1;" parent="cVBqusEGg2LFIOtPGcBv-20" vertex="1">
          <mxGeometry y="60" width="160" height="26" as="geometry" />
        </mxCell>
        <mxCell id="cVBqusEGg2LFIOtPGcBv-24" value="PromedioFarenheit" style="swimlane;fontStyle=1;align=center;verticalAlign=top;childLayout=stackLayout;horizontal=1;startSize=26;horizontalStack=0;resizeParent=1;resizeParentMax=0;resizeLast=0;collapsible=1;marginBottom=0;whiteSpace=wrap;html=1;" parent="1" vertex="1">
          <mxGeometry x="490" y="730" width="160" height="90" as="geometry" />
        </mxCell>
        <mxCell id="cVBqusEGg2LFIOtPGcBv-25" value="-" style="text;strokeColor=none;fillColor=none;align=left;verticalAlign=top;spacingLeft=4;spacingRight=4;overflow=hidden;rotatable=0;points=[[0,0.5],[1,0.5]];portConstraint=eastwest;whiteSpace=wrap;html=1;" parent="cVBqusEGg2LFIOtPGcBv-24" vertex="1">
          <mxGeometry y="26" width="160" height="26" as="geometry" />
        </mxCell>
        <mxCell id="cVBqusEGg2LFIOtPGcBv-26" value="" style="line;strokeWidth=1;fillColor=none;align=left;verticalAlign=middle;spacingTop=-1;spacingLeft=3;spacingRight=3;rotatable=0;labelPosition=right;points=[];portConstraint=eastwest;strokeColor=inherit;" parent="cVBqusEGg2LFIOtPGcBv-24" vertex="1">
          <mxGeometry y="52" width="160" height="8" as="geometry" />
        </mxCell>
        <mxCell id="cVBqusEGg2LFIOtPGcBv-27" value="# obtenerPromedio():Real" style="text;strokeColor=none;fillColor=none;align=left;verticalAlign=top;spacingLeft=4;spacingRight=4;overflow=hidden;rotatable=0;points=[[0,0.5],[1,0.5]];portConstraint=eastwest;whiteSpace=wrap;html=1;" parent="cVBqusEGg2LFIOtPGcBv-24" vertex="1">
          <mxGeometry y="60" width="160" height="30" as="geometry" />
        </mxCell>
        <mxCell id="cVBqusEGg2LFIOtPGcBv-28" value="MinimoFarenheit" style="swimlane;fontStyle=1;align=center;verticalAlign=top;childLayout=stackLayout;horizontal=1;startSize=26;horizontalStack=0;resizeParent=1;resizeParentMax=0;resizeLast=0;collapsible=1;marginBottom=0;whiteSpace=wrap;html=1;" parent="1" vertex="1">
          <mxGeometry x="870" y="730" width="160" height="90" as="geometry" />
        </mxCell>
        <mxCell id="cVBqusEGg2LFIOtPGcBv-29" value="-" style="text;strokeColor=none;fillColor=none;align=left;verticalAlign=top;spacingLeft=4;spacingRight=4;overflow=hidden;rotatable=0;points=[[0,0.5],[1,0.5]];portConstraint=eastwest;whiteSpace=wrap;html=1;" parent="cVBqusEGg2LFIOtPGcBv-28" vertex="1">
          <mxGeometry y="26" width="160" height="26" as="geometry" />
        </mxCell>
        <mxCell id="cVBqusEGg2LFIOtPGcBv-30" value="" style="line;strokeWidth=1;fillColor=none;align=left;verticalAlign=middle;spacingTop=-1;spacingLeft=3;spacingRight=3;rotatable=0;labelPosition=right;points=[];portConstraint=eastwest;strokeColor=inherit;" parent="cVBqusEGg2LFIOtPGcBv-28" vertex="1">
          <mxGeometry y="52" width="160" height="8" as="geometry" />
        </mxCell>
        <mxCell id="cVBqusEGg2LFIOtPGcBv-31" value="# obtenerMinimo():Real" style="text;strokeColor=none;fillColor=none;align=left;verticalAlign=top;spacingLeft=4;spacingRight=4;overflow=hidden;rotatable=0;points=[[0,0.5],[1,0.5]];portConstraint=eastwest;whiteSpace=wrap;html=1;" parent="cVBqusEGg2LFIOtPGcBv-28" vertex="1">
          <mxGeometry y="60" width="160" height="30" as="geometry" />
        </mxCell>
        <mxCell id="cVBqusEGg2LFIOtPGcBv-32" value="MaximoFarenheit" style="swimlane;fontStyle=1;align=center;verticalAlign=top;childLayout=stackLayout;horizontal=1;startSize=26;horizontalStack=0;resizeParent=1;resizeParentMax=0;resizeLast=0;collapsible=1;marginBottom=0;whiteSpace=wrap;html=1;" parent="1" vertex="1">
          <mxGeometry x="1250" y="730" width="160" height="90" as="geometry" />
        </mxCell>
        <mxCell id="cVBqusEGg2LFIOtPGcBv-33" value="-" style="text;strokeColor=none;fillColor=none;align=left;verticalAlign=top;spacingLeft=4;spacingRight=4;overflow=hidden;rotatable=0;points=[[0,0.5],[1,0.5]];portConstraint=eastwest;whiteSpace=wrap;html=1;" parent="cVBqusEGg2LFIOtPGcBv-32" vertex="1">
          <mxGeometry y="26" width="160" height="26" as="geometry" />
        </mxCell>
        <mxCell id="cVBqusEGg2LFIOtPGcBv-34" value="" style="line;strokeWidth=1;fillColor=none;align=left;verticalAlign=middle;spacingTop=-1;spacingLeft=3;spacingRight=3;rotatable=0;labelPosition=right;points=[];portConstraint=eastwest;strokeColor=inherit;" parent="cVBqusEGg2LFIOtPGcBv-32" vertex="1">
          <mxGeometry y="52" width="160" height="8" as="geometry" />
        </mxCell>
        <mxCell id="cVBqusEGg2LFIOtPGcBv-35" value="# obtenerMaximo():Real" style="text;strokeColor=none;fillColor=none;align=left;verticalAlign=top;spacingLeft=4;spacingRight=4;overflow=hidden;rotatable=0;points=[[0,0.5],[1,0.5]];portConstraint=eastwest;whiteSpace=wrap;html=1;" parent="cVBqusEGg2LFIOtPGcBv-32" vertex="1">
          <mxGeometry y="60" width="160" height="30" as="geometry" />
        </mxCell>
        <mxCell id="cVBqusEGg2LFIOtPGcBv-36" value="Farenheit" style="swimlane;fontStyle=1;align=center;verticalAlign=top;childLayout=stackLayout;horizontal=1;startSize=26;horizontalStack=0;resizeParent=1;resizeParentMax=0;resizeLast=0;collapsible=1;marginBottom=0;whiteSpace=wrap;html=1;" parent="1" vertex="1">
          <mxGeometry x="-210" y="570" width="160" height="86" as="geometry" />
        </mxCell>
        <mxCell id="cVBqusEGg2LFIOtPGcBv-37" value="-" style="text;strokeColor=none;fillColor=none;align=left;verticalAlign=top;spacingLeft=4;spacingRight=4;overflow=hidden;rotatable=0;points=[[0,0.5],[1,0.5]];portConstraint=eastwest;whiteSpace=wrap;html=1;" parent="cVBqusEGg2LFIOtPGcBv-36" vertex="1">
          <mxGeometry y="26" width="160" height="26" as="geometry" />
        </mxCell>
        <mxCell id="cVBqusEGg2LFIOtPGcBv-38" value="" style="line;strokeWidth=1;fillColor=none;align=left;verticalAlign=middle;spacingTop=-1;spacingLeft=3;spacingRight=3;rotatable=0;labelPosition=right;points=[];portConstraint=eastwest;strokeColor=inherit;" parent="cVBqusEGg2LFIOtPGcBv-36" vertex="1">
          <mxGeometry y="52" width="160" height="8" as="geometry" />
        </mxCell>
        <mxCell id="cVBqusEGg2LFIOtPGcBv-39" value="+ displayData():String" style="text;strokeColor=none;fillColor=none;align=left;verticalAlign=top;spacingLeft=4;spacingRight=4;overflow=hidden;rotatable=0;points=[[0,0.5],[1,0.5]];portConstraint=eastwest;whiteSpace=wrap;html=1;" parent="cVBqusEGg2LFIOtPGcBv-36" vertex="1">
          <mxGeometry y="60" width="160" height="26" as="geometry" />
        </mxCell>
        <mxCell id="cVBqusEGg2LFIOtPGcBv-40" value="" style="endArrow=block;endSize=16;endFill=0;html=1;rounded=0;entryX=0.5;entryY=1;entryDx=0;entryDy=0;exitX=0.5;exitY=0;exitDx=0;exitDy=0;edgeStyle=orthogonalEdgeStyle;" parent="1" source="cVBqusEGg2LFIOtPGcBv-36" target="cVBqusEGg2LFIOtPGcBv-6" edge="1">
          <mxGeometry width="160" relative="1" as="geometry">
            <mxPoint x="100" y="690" as="sourcePoint" />
            <mxPoint x="260" y="690" as="targetPoint" />
          </mxGeometry>
        </mxCell>
        <mxCell id="cVBqusEGg2LFIOtPGcBv-41" value="" style="endArrow=block;endSize=16;endFill=0;html=1;rounded=0;entryX=0.5;entryY=1;entryDx=0;entryDy=0;exitX=0.5;exitY=0;exitDx=0;exitDy=0;edgeStyle=orthogonalEdgeStyle;" parent="1" source="cVBqusEGg2LFIOtPGcBv-7" target="cVBqusEGg2LFIOtPGcBv-6" edge="1">
          <mxGeometry width="160" relative="1" as="geometry">
            <mxPoint x="-110" y="570" as="sourcePoint" />
            <mxPoint x="445" y="480" as="targetPoint" />
          </mxGeometry>
        </mxCell>
        <mxCell id="cVBqusEGg2LFIOtPGcBv-42" value="" style="endArrow=block;endSize=16;endFill=0;html=1;rounded=0;entryX=0.5;entryY=1;entryDx=0;entryDy=0;exitX=0.5;exitY=0;exitDx=0;exitDy=0;edgeStyle=orthogonalEdgeStyle;" parent="1" source="cVBqusEGg2LFIOtPGcBv-16" target="cVBqusEGg2LFIOtPGcBv-6" edge="1">
          <mxGeometry width="160" relative="1" as="geometry">
            <mxPoint x="91" y="570" as="sourcePoint" />
            <mxPoint x="445" y="480" as="targetPoint" />
          </mxGeometry>
        </mxCell>
        <mxCell id="cVBqusEGg2LFIOtPGcBv-43" value="" style="endArrow=block;endSize=16;endFill=0;html=1;rounded=0;entryX=0.5;entryY=1;entryDx=0;entryDy=0;exitX=0.5;exitY=0;exitDx=0;exitDy=0;edgeStyle=orthogonalEdgeStyle;" parent="1" source="cVBqusEGg2LFIOtPGcBv-20" target="cVBqusEGg2LFIOtPGcBv-6" edge="1">
          <mxGeometry width="160" relative="1" as="geometry">
            <mxPoint x="291" y="570" as="sourcePoint" />
            <mxPoint x="445" y="480" as="targetPoint" />
          </mxGeometry>
        </mxCell>
        <mxCell id="cVBqusEGg2LFIOtPGcBv-47" value="Concrete Decorators" style="text;html=1;align=center;verticalAlign=middle;resizable=0;points=[];autosize=1;strokeColor=none;fillColor=none;" parent="1" vertex="1">
          <mxGeometry x="265" y="680" width="130" height="30" as="geometry" />
        </mxCell>
        <mxCell id="cVBqusEGg2LFIOtPGcBv-48" value="1" style="endArrow=open;html=1;endSize=12;startArrow=diamondThin;startSize=14;startFill=1;edgeStyle=orthogonalEdgeStyle;align=left;verticalAlign=bottom;rounded=0;entryX=1;entryY=0.25;entryDx=0;entryDy=0;exitX=0.75;exitY=0;exitDx=0;exitDy=0;" parent="1" source="cVBqusEGg2LFIOtPGcBv-6" target="cVBqusEGg2LFIOtPGcBv-1" edge="1">
          <mxGeometry x="-1" y="-7" relative="1" as="geometry">
            <mxPoint x="150" y="430" as="sourcePoint" />
            <mxPoint x="310" y="430" as="targetPoint" />
            <mxPoint x="1" as="offset" />
          </mxGeometry>
        </mxCell>
        <mxCell id="cVBqusEGg2LFIOtPGcBv-49" value="PromedioCelcius" style="swimlane;fontStyle=1;align=center;verticalAlign=top;childLayout=stackLayout;horizontal=1;startSize=26;horizontalStack=0;resizeParent=1;resizeParentMax=0;resizeLast=0;collapsible=1;marginBottom=0;whiteSpace=wrap;html=1;" parent="1" vertex="1">
          <mxGeometry x="680" y="730" width="160" height="90" as="geometry" />
        </mxCell>
        <mxCell id="cVBqusEGg2LFIOtPGcBv-50" value="-" style="text;strokeColor=none;fillColor=none;align=left;verticalAlign=top;spacingLeft=4;spacingRight=4;overflow=hidden;rotatable=0;points=[[0,0.5],[1,0.5]];portConstraint=eastwest;whiteSpace=wrap;html=1;" parent="cVBqusEGg2LFIOtPGcBv-49" vertex="1">
          <mxGeometry y="26" width="160" height="26" as="geometry" />
        </mxCell>
        <mxCell id="cVBqusEGg2LFIOtPGcBv-51" value="" style="line;strokeWidth=1;fillColor=none;align=left;verticalAlign=middle;spacingTop=-1;spacingLeft=3;spacingRight=3;rotatable=0;labelPosition=right;points=[];portConstraint=eastwest;strokeColor=inherit;" parent="cVBqusEGg2LFIOtPGcBv-49" vertex="1">
          <mxGeometry y="52" width="160" height="8" as="geometry" />
        </mxCell>
        <mxCell id="cVBqusEGg2LFIOtPGcBv-52" value="# obtenerPromedio():Real" style="text;strokeColor=none;fillColor=none;align=left;verticalAlign=top;spacingLeft=4;spacingRight=4;overflow=hidden;rotatable=0;points=[[0,0.5],[1,0.5]];portConstraint=eastwest;whiteSpace=wrap;html=1;" parent="cVBqusEGg2LFIOtPGcBv-49" vertex="1">
          <mxGeometry y="60" width="160" height="30" as="geometry" />
        </mxCell>
        <mxCell id="cVBqusEGg2LFIOtPGcBv-60" value="&lt;p style=&quot;margin:0px;margin-top:4px;text-align:center;&quot;&gt;&lt;i&gt;&amp;lt;&amp;lt;Abstract&amp;gt;&amp;gt;&lt;/i&gt;&lt;br&gt;&lt;b&gt;Promedio&lt;/b&gt;&lt;/p&gt;&lt;hr size=&quot;1&quot;&gt;&lt;p style=&quot;margin:0px;margin-left:4px;&quot;&gt;-&lt;/p&gt;&lt;hr size=&quot;1&quot;&gt;&lt;p style=&quot;margin:0px;margin-left:4px;&quot;&gt;&lt;span style=&quot;background-color: initial;&quot;&gt;# &amp;lt;&amp;lt;Abstract&amp;gt;&amp;gt; obtenerPromedio():Real&lt;/span&gt;&lt;/p&gt;&lt;p style=&quot;margin:0px;margin-left:4px;&quot;&gt;&lt;span style=&quot;background-color: initial;&quot;&gt;+ displayData():String&lt;/span&gt;&lt;br&gt;&lt;/p&gt;" style="verticalAlign=top;align=left;overflow=fill;fontSize=12;fontFamily=Helvetica;html=1;whiteSpace=wrap;" parent="1" vertex="1">
          <mxGeometry x="550" y="570" width="230" height="110" as="geometry" />
        </mxCell>
        <mxCell id="cVBqusEGg2LFIOtPGcBv-61" value="" style="endArrow=block;endSize=16;endFill=0;html=1;rounded=0;entryX=0.5;entryY=1;entryDx=0;entryDy=0;exitX=0.5;exitY=0;exitDx=0;exitDy=0;edgeStyle=orthogonalEdgeStyle;" parent="1" source="cVBqusEGg2LFIOtPGcBv-24" target="cVBqusEGg2LFIOtPGcBv-60" edge="1">
          <mxGeometry width="160" relative="1" as="geometry">
            <mxPoint x="445" y="580" as="sourcePoint" />
            <mxPoint x="445" y="480" as="targetPoint" />
          </mxGeometry>
        </mxCell>
        <mxCell id="cVBqusEGg2LFIOtPGcBv-62" value="" style="endArrow=block;endSize=16;endFill=0;html=1;rounded=0;entryX=0.5;entryY=1;entryDx=0;entryDy=0;exitX=0.5;exitY=0;exitDx=0;exitDy=0;edgeStyle=orthogonalEdgeStyle;" parent="1" source="cVBqusEGg2LFIOtPGcBv-49" target="cVBqusEGg2LFIOtPGcBv-60" edge="1">
          <mxGeometry width="160" relative="1" as="geometry">
            <mxPoint x="550" y="870" as="sourcePoint" />
            <mxPoint x="675" y="690" as="targetPoint" />
          </mxGeometry>
        </mxCell>
        <mxCell id="cVBqusEGg2LFIOtPGcBv-63" value="" style="endArrow=block;endSize=16;endFill=0;html=1;rounded=0;entryX=0.5;entryY=1;entryDx=0;entryDy=0;exitX=0.5;exitY=0;exitDx=0;exitDy=0;edgeStyle=orthogonalEdgeStyle;" parent="1" source="cVBqusEGg2LFIOtPGcBv-60" target="cVBqusEGg2LFIOtPGcBv-6" edge="1">
          <mxGeometry width="160" relative="1" as="geometry">
            <mxPoint x="445" y="580" as="sourcePoint" />
            <mxPoint x="445" y="480" as="targetPoint" />
          </mxGeometry>
        </mxCell>
        <mxCell id="cVBqusEGg2LFIOtPGcBv-65" value="&lt;p style=&quot;margin:0px;margin-top:4px;text-align:center;&quot;&gt;&lt;i&gt;&amp;lt;&amp;lt;Abstract&amp;gt;&amp;gt;&lt;/i&gt;&lt;br&gt;&lt;b&gt;Minimo&lt;/b&gt;&lt;/p&gt;&lt;hr size=&quot;1&quot;&gt;&lt;p style=&quot;margin:0px;margin-left:4px;&quot;&gt;-&lt;/p&gt;&lt;hr size=&quot;1&quot;&gt;&lt;p style=&quot;margin:0px;margin-left:4px;&quot;&gt;&lt;span style=&quot;background-color: initial;&quot;&gt;# &amp;lt;&amp;lt;Abstract&amp;gt;&amp;gt; obtenerMinimo():Real&lt;/span&gt;&lt;/p&gt;&lt;p style=&quot;margin:0px;margin-left:4px;&quot;&gt;&lt;span style=&quot;background-color: initial;&quot;&gt;+ displayData():String&lt;/span&gt;&lt;br&gt;&lt;/p&gt;" style="verticalAlign=top;align=left;overflow=fill;fontSize=12;fontFamily=Helvetica;html=1;whiteSpace=wrap;" parent="1" vertex="1">
          <mxGeometry x="930" y="570" width="230" height="110" as="geometry" />
        </mxCell>
        <mxCell id="cVBqusEGg2LFIOtPGcBv-66" value="&lt;p style=&quot;margin:0px;margin-top:4px;text-align:center;&quot;&gt;&lt;i&gt;&amp;lt;&amp;lt;Abstract&amp;gt;&amp;gt;&lt;/i&gt;&lt;br&gt;&lt;b&gt;Maximo&lt;/b&gt;&lt;/p&gt;&lt;hr size=&quot;1&quot;&gt;&lt;p style=&quot;margin:0px;margin-left:4px;&quot;&gt;-&lt;/p&gt;&lt;hr size=&quot;1&quot;&gt;&lt;p style=&quot;margin:0px;margin-left:4px;&quot;&gt;&lt;span style=&quot;background-color: initial;&quot;&gt;# &amp;lt;&amp;lt;Abstract&amp;gt;&amp;gt; obtenerMaximo():Real&lt;/span&gt;&lt;/p&gt;&lt;p style=&quot;margin:0px;margin-left:4px;&quot;&gt;&lt;span style=&quot;background-color: initial;&quot;&gt;+ displayData():String&lt;/span&gt;&lt;br&gt;&lt;/p&gt;" style="verticalAlign=top;align=left;overflow=fill;fontSize=12;fontFamily=Helvetica;html=1;whiteSpace=wrap;" parent="1" vertex="1">
          <mxGeometry x="1300" y="570" width="230" height="110" as="geometry" />
        </mxCell>
        <mxCell id="cVBqusEGg2LFIOtPGcBv-67" value="MinimoCelcius" style="swimlane;fontStyle=1;align=center;verticalAlign=top;childLayout=stackLayout;horizontal=1;startSize=26;horizontalStack=0;resizeParent=1;resizeParentMax=0;resizeLast=0;collapsible=1;marginBottom=0;whiteSpace=wrap;html=1;" parent="1" vertex="1">
          <mxGeometry x="1060" y="730" width="160" height="90" as="geometry" />
        </mxCell>
        <mxCell id="cVBqusEGg2LFIOtPGcBv-68" value="-" style="text;strokeColor=none;fillColor=none;align=left;verticalAlign=top;spacingLeft=4;spacingRight=4;overflow=hidden;rotatable=0;points=[[0,0.5],[1,0.5]];portConstraint=eastwest;whiteSpace=wrap;html=1;" parent="cVBqusEGg2LFIOtPGcBv-67" vertex="1">
          <mxGeometry y="26" width="160" height="26" as="geometry" />
        </mxCell>
        <mxCell id="cVBqusEGg2LFIOtPGcBv-69" value="" style="line;strokeWidth=1;fillColor=none;align=left;verticalAlign=middle;spacingTop=-1;spacingLeft=3;spacingRight=3;rotatable=0;labelPosition=right;points=[];portConstraint=eastwest;strokeColor=inherit;" parent="cVBqusEGg2LFIOtPGcBv-67" vertex="1">
          <mxGeometry y="52" width="160" height="8" as="geometry" />
        </mxCell>
        <mxCell id="cVBqusEGg2LFIOtPGcBv-70" value="# obtenerMinimo():Real" style="text;strokeColor=none;fillColor=none;align=left;verticalAlign=top;spacingLeft=4;spacingRight=4;overflow=hidden;rotatable=0;points=[[0,0.5],[1,0.5]];portConstraint=eastwest;whiteSpace=wrap;html=1;" parent="cVBqusEGg2LFIOtPGcBv-67" vertex="1">
          <mxGeometry y="60" width="160" height="30" as="geometry" />
        </mxCell>
        <mxCell id="cVBqusEGg2LFIOtPGcBv-71" value="MaximoCelcius" style="swimlane;fontStyle=1;align=center;verticalAlign=top;childLayout=stackLayout;horizontal=1;startSize=26;horizontalStack=0;resizeParent=1;resizeParentMax=0;resizeLast=0;collapsible=1;marginBottom=0;whiteSpace=wrap;html=1;" parent="1" vertex="1">
          <mxGeometry x="1440" y="730" width="160" height="90" as="geometry" />
        </mxCell>
        <mxCell id="cVBqusEGg2LFIOtPGcBv-72" value="-" style="text;strokeColor=none;fillColor=none;align=left;verticalAlign=top;spacingLeft=4;spacingRight=4;overflow=hidden;rotatable=0;points=[[0,0.5],[1,0.5]];portConstraint=eastwest;whiteSpace=wrap;html=1;" parent="cVBqusEGg2LFIOtPGcBv-71" vertex="1">
          <mxGeometry y="26" width="160" height="26" as="geometry" />
        </mxCell>
        <mxCell id="cVBqusEGg2LFIOtPGcBv-73" value="" style="line;strokeWidth=1;fillColor=none;align=left;verticalAlign=middle;spacingTop=-1;spacingLeft=3;spacingRight=3;rotatable=0;labelPosition=right;points=[];portConstraint=eastwest;strokeColor=inherit;" parent="cVBqusEGg2LFIOtPGcBv-71" vertex="1">
          <mxGeometry y="52" width="160" height="8" as="geometry" />
        </mxCell>
        <mxCell id="cVBqusEGg2LFIOtPGcBv-74" value="# obtenerMaximo():Real" style="text;strokeColor=none;fillColor=none;align=left;verticalAlign=top;spacingLeft=4;spacingRight=4;overflow=hidden;rotatable=0;points=[[0,0.5],[1,0.5]];portConstraint=eastwest;whiteSpace=wrap;html=1;" parent="cVBqusEGg2LFIOtPGcBv-71" vertex="1">
          <mxGeometry y="60" width="160" height="30" as="geometry" />
        </mxCell>
        <mxCell id="cVBqusEGg2LFIOtPGcBv-75" value="" style="endArrow=block;endSize=16;endFill=0;html=1;rounded=0;entryX=0.5;entryY=1;entryDx=0;entryDy=0;edgeStyle=orthogonalEdgeStyle;exitX=0.5;exitY=0;exitDx=0;exitDy=0;" parent="1" source="cVBqusEGg2LFIOtPGcBv-28" edge="1">
          <mxGeometry width="160" relative="1" as="geometry">
            <mxPoint x="970" y="710" as="sourcePoint" />
            <mxPoint x="1045" y="679.5" as="targetPoint" />
          </mxGeometry>
        </mxCell>
        <mxCell id="cVBqusEGg2LFIOtPGcBv-76" value="" style="endArrow=block;endSize=16;endFill=0;html=1;rounded=0;entryX=0.5;entryY=1;entryDx=0;entryDy=0;exitX=0.5;exitY=0;exitDx=0;exitDy=0;edgeStyle=orthogonalEdgeStyle;" parent="1" source="cVBqusEGg2LFIOtPGcBv-67" edge="1">
          <mxGeometry width="160" relative="1" as="geometry">
            <mxPoint x="1140" y="729.5" as="sourcePoint" />
            <mxPoint x="1045" y="679.5" as="targetPoint" />
          </mxGeometry>
        </mxCell>
        <mxCell id="cVBqusEGg2LFIOtPGcBv-77" value="" style="endArrow=block;endSize=16;endFill=0;html=1;rounded=0;entryX=0.5;entryY=1;entryDx=0;entryDy=0;edgeStyle=orthogonalEdgeStyle;exitX=0.5;exitY=0;exitDx=0;exitDy=0;" parent="1" source="cVBqusEGg2LFIOtPGcBv-32" edge="1">
          <mxGeometry width="160" relative="1" as="geometry">
            <mxPoint x="1340" y="710" as="sourcePoint" />
            <mxPoint x="1425" y="680" as="targetPoint" />
          </mxGeometry>
        </mxCell>
        <mxCell id="cVBqusEGg2LFIOtPGcBv-78" value="" style="endArrow=block;endSize=16;endFill=0;html=1;rounded=0;entryX=0.5;entryY=1;entryDx=0;entryDy=0;exitX=0.5;exitY=0;exitDx=0;exitDy=0;edgeStyle=orthogonalEdgeStyle;" parent="1" source="cVBqusEGg2LFIOtPGcBv-71" edge="1">
          <mxGeometry width="160" relative="1" as="geometry">
            <mxPoint x="1520" y="730.5" as="sourcePoint" />
            <mxPoint x="1425" y="680" as="targetPoint" />
          </mxGeometry>
        </mxCell>
        <mxCell id="cVBqusEGg2LFIOtPGcBv-79" value="" style="endArrow=block;endSize=16;endFill=0;html=1;rounded=0;entryX=0.5;entryY=1;entryDx=0;entryDy=0;exitX=0.5;exitY=0;exitDx=0;exitDy=0;edgeStyle=orthogonalEdgeStyle;" parent="1" source="cVBqusEGg2LFIOtPGcBv-65" target="cVBqusEGg2LFIOtPGcBv-6" edge="1">
          <mxGeometry width="160" relative="1" as="geometry">
            <mxPoint x="675" y="580" as="sourcePoint" />
            <mxPoint x="445" y="480" as="targetPoint" />
          </mxGeometry>
        </mxCell>
        <mxCell id="cVBqusEGg2LFIOtPGcBv-80" value="" style="endArrow=block;endSize=16;endFill=0;html=1;rounded=0;entryX=0.5;entryY=1;entryDx=0;entryDy=0;exitX=0.5;exitY=0;exitDx=0;exitDy=0;edgeStyle=orthogonalEdgeStyle;" parent="1" source="cVBqusEGg2LFIOtPGcBv-66" target="cVBqusEGg2LFIOtPGcBv-6" edge="1">
          <mxGeometry width="160" relative="1" as="geometry">
            <mxPoint x="1055" y="580" as="sourcePoint" />
            <mxPoint x="445" y="480" as="targetPoint" />
          </mxGeometry>
        </mxCell>
        <mxCell id="zbeJGMRGxAvILf1rLbj0-1" value="Template Method&lt;br&gt;(Promedio, Mínimo, Máximo)" style="text;html=1;align=center;verticalAlign=middle;resizable=0;points=[];autosize=1;strokeColor=none;fillColor=none;" vertex="1" parent="1">
          <mxGeometry x="955" y="453" width="180" height="40" as="geometry" />
        </mxCell>
      </root>
    </mxGraphModel>
  </diagram>
</mxfile>
